<?xml version="1.0" encoding="UTF-8"?>
<!DOCTYPE svg PUBLIC "-//W3C//DTD SVG 1.1//EN" "http://www.w3.org/Graphics/SVG/1.1/DTD/svg11.dtd">
<svg xmlns="http://www.w3.org/2000/svg"><defs>
        <style>
            .cls-1{fill:#ba63c6}
        </style>
    </defs>
<symbol id="account" viewBox="0 0 24 24">
    <g id="icons">
        <g id="user">
            <ellipse cx="12" cy="8" rx="5" ry="6"/>
            <path d="M21.8 19.1c-.9-1.8-2.6-3.3-4.8-4.2-.6-.2-1.3-.2-1.8.1-1 .6-2 .9-3.2.9s-2.2-.3-3.2-.9c-.5-.2-1.2-.3-1.8 0-2.2.9-3.9 2.4-4.8 4.2-.7 1.3.4 2.8 1.9 2.8h15.8c1.5 0 2.6-1.5 1.9-2.9z"/>
        </g>
    </g>
</symbol>
<symbol id="arrow-pointing-to-right" viewBox="0 0 268.832 268.832">
    <path d="M265.171 125.577l-80-80c-4.881-4.881-12.797-4.881-17.678 0-4.882 4.882-4.882 12.796 0 17.678l58.661 58.661H12.5c-6.903 0-12.5 5.597-12.5 12.5 0 6.902 5.597 12.5 12.5 12.5h213.654l-58.659 58.661c-4.882 4.882-4.882 12.796 0 17.678 2.44 2.439 5.64 3.661 8.839 3.661s6.398-1.222 8.839-3.661l79.998-80c4.882-4.882 4.882-12.796 0-17.678z"/>
</symbol>
<symbol id="arrow-up" viewBox="0 0 96 96">
    <path d="M52 84V21.656l21.457 21.456a4 4 0 1 0 5.656-5.657L50.829 9.172a4.037 4.037 0 0 0-.609-.498c-.101-.067-.21-.114-.315-.172-.124-.066-.242-.142-.373-.195-.135-.057-.275-.089-.415-.129-.111-.033-.216-.076-.331-.099A3.99 3.99 0 0 0 48.001 8l-.009.001a4.032 4.032 0 0 0-.774.078c-.12.024-.231.069-.349.104-.133.039-.268.069-.397.123-.139.058-.265.136-.396.208-.098.054-.198.097-.292.159a3.94 3.94 0 0 0-.614.501L16.889 37.456a4.001 4.001 0 0 0 5.657 5.657L44 21.657V84a4 4 0 0 0 8 0z"/>
</symbol>
<symbol id="audio" viewBox="0 0 64 64">
    <path d="M23.727 16.403v24.134a8.296 8.296 0 0 0-4.35-1.233c-4.612 0-8.353 3.74-8.353 8.349a8.354 8.354 0 0 0 8.353 8.354c4.61 0 8.349-3.739 8.35-8.352V25.151l21.25-6.109V33.33a8.296 8.296 0 0 0-4.35-1.233c-4.614 0-8.353 3.739-8.353 8.348a8.354 8.354 0 0 0 8.353 8.354c4.344 0 7.914-3.325 8.31-7.57h.04V7.993l-29.25 8.41z"/>
</symbol>
<symbol id="bars" viewBox="0 0 32 32">
    
    <title/>
    <path class="cls-1" d="M13 2a2 2 0 0 0-2 2v24a2 2 0 0 0 4 0V4a2 2 0 0 0-2-2zM5 14a2 2 0 0 0-2 2v12a2 2 0 0 0 4 0V16a2 2 0 0 0-2-2zM21 8a2 2 0 0 0-2 2v18a2 2 0 0 0 4 0V10a2 2 0 0 0-2-2zM29 21a2 2 0 0 0-2 2v5a2 2 0 0 0 4 0v-5a2 2 0 0 0-2-2z"/>
</symbol>
<symbol id="basket" viewBox="0 0 24 24">
    <g id="icons">
        <g id="cart2">
            <circle cx="10" cy="20" r="2"/>
            <circle cx="16" cy="20" r="2"/>
            <path d="M21.6 7.8c-.4-.5-1-.8-1.6-.8H8.6L8 3.6C7.8 2.7 7 2 6 2H4c-1.1 0-2 .9-2 2s.9 2 2 2h.3L6 14.4c.2 1 1 1.6 2 1.6h10c.9 0 1.6-.6 1.9-1.4l2-5c.2-.6.1-1.2-.3-1.8z"/>
        </g>
    </g>
</symbol>
<symbol id="check" viewBox="0 0 48 48">
    <path d="M16 41.1L1.3 26.4l1.4-1.5L16 38.2 45.3 8.9l1.4 1.5z"/>
</symbol>
<symbol id="chevron-arrow-up" viewBox="0 0 284.929 284.929">
    <path d="M282.082 195.285L149.028 62.24c-1.901-1.903-4.088-2.856-6.562-2.856s-4.665.953-6.567 2.856L2.856 195.285C.95 197.191 0 199.378 0 201.853c0 2.474.953 4.664 2.856 6.566l14.272 14.271c1.903 1.903 4.093 2.854 6.567 2.854s4.664-.951 6.567-2.854l112.204-112.202 112.208 112.209c1.902 1.903 4.093 2.848 6.563 2.848 2.478 0 4.668-.951 6.57-2.848l14.274-14.277c1.902-1.902 2.847-4.093 2.847-6.566.001-2.476-.944-4.666-2.846-6.569z"/>
</symbol>
<symbol id="clear-button" viewBox="0 0 357 357">
    <path d="M357 35.7L321.3 0 178.5 142.8 35.7 0 0 35.7l142.8 142.8L0 321.3 35.7 357l142.8-142.8L321.3 357l35.7-35.7-142.8-142.8z" id="clear"/>
</symbol>
<symbol id="clock" viewBox="0 0 96 96">
    <path d="M72 21.174V12c0-6.63-5.37-12-12-12H36c-6.63 0-12 5.37-12 12v9.174C16.637 27.766 12 37.34 12 48s4.637 20.234 12 26.826V84c0 6.63 5.37 12 12 12h24c6.63 0 12-5.37 12-12v-9.174C79.363 68.234 84 58.66 84 48s-4.637-20.234-12-26.826zM32 12c0-2.21 1.79-4 4-4h24c2.21 0 4 1.79 4 4v3.751C59.18 13.354 53.749 12 48 12s-11.179 1.354-16 3.751V12zm32 72c0 2.21-1.79 4-4 4H36c-2.21 0-4-1.79-4-4v-3.751C36.821 82.646 42.251 84 48 84s11.18-1.354 16-3.751V84zm-16-8c-15.464 0-28-12.536-28-28s12.536-28 28-28 28 12.536 28 28-12.536 28-28 28z"/>
    <path d="M59.314 53.657L52 46.343V32a4 4 0 0 0-8 0v16l.003.027c.001.253.026.506.076.755.024.122.069.235.104.354.039.132.069.265.122.394.058.138.136.264.208.394.054.099.097.2.16.295.147.22.314.427.501.613l8.483 8.481a4 4 0 1 0 5.657-5.656z"/>
</symbol>
<symbol id="close" viewBox="0 0 512 512">
    <path d="M437.5 386.6L306.9 256l130.6-130.6c14.1-14.1 14.1-36.8 0-50.9-14.1-14.1-36.8-14.1-50.9 0L256 205.1 125.4 74.5c-14.1-14.1-36.8-14.1-50.9 0-14.1 14.1-14.1 36.8 0 50.9L205.1 256 74.5 386.6c-14.1 14.1-14.1 36.8 0 50.9 14.1 14.1 36.8 14.1 50.9 0L256 306.9l130.6 130.6c14.1 14.1 36.8 14.1 50.9 0 14-14.1 14-36.9 0-50.9z"/>
</symbol>
<symbol id="computer" viewBox="0 0 48 48">
    <g id="Expanded">
        <path d="M44 40H4c-2.206 0-4-1.794-4-4V6c0-2.206 1.794-4 4-4h40c2.206 0 4 1.794 4 4v30c0 2.206-1.794 4-4 4zM4 4c-1.103 0-2 .897-2 2v30c0 1.103.897 2 2 2h40c1.103 0 2-.897 2-2V6c0-1.103-.897-2-2-2H4zM38 46H10a1 1 0 0 1 0-2h28a1 1 0 0 1 0 2z"/>
        <path d="M31.02 46H17a1.002 1.002 0 0 1-.949-1.317l2-6A1 1 0 0 1 19 38h10a1 1 0 0 1 .949.684l1.94 5.821A1 1 0 0 1 31.02 46zm-12.633-2h11.226l-1.333-4h-8.559l-1.334 4zM44 32H4V6h40v26zM6 30h36V8H6v22z"/>
        <circle cx="24" cy="35" r="2"/>
    </g>
</symbol>
<symbol id="delivery-truck-silhouette" viewBox="0 0 493.349 493.349">
    <path d="M487.932 51.1c-3.613-3.612-7.905-5.424-12.847-5.424h-292.36c-4.948 0-9.233 1.812-12.847 5.424-3.615 3.617-5.424 7.902-5.424 12.85v54.818h-45.683c-5.14 0-10.71 1.237-16.705 3.711-5.996 2.478-10.801 5.518-14.416 9.135l-56.532 56.531c-2.473 2.474-4.612 5.327-6.424 8.565-1.807 3.23-3.14 6.14-3.997 8.705-.855 2.572-1.477 6.089-1.854 10.566-.378 4.475-.62 7.758-.715 9.853-.091 2.092-.091 5.71 0 10.85.096 5.142.144 8.47.144 9.995v91.36c-4.947 0-9.229 1.807-12.847 5.428C1.809 347.076 0 351.363 0 356.312c0 2.851.378 5.376 1.14 7.562.763 2.19 2.046 3.949 3.858 5.284a92.406 92.406 0 0 0 4.709 3.285c1.335.855 3.571 1.424 6.711 1.711s5.28.479 6.423.575c1.143.089 3.568.089 7.279 0 3.715-.096 5.855-.144 6.427-.144h18.271c0 20.17 7.139 37.397 21.411 51.674 14.277 14.274 31.501 21.413 51.678 21.413 20.175 0 37.401-7.139 51.675-21.413 14.277-14.276 21.411-31.504 21.411-51.674H310.63c0 20.17 7.139 37.397 21.412 51.674 14.271 14.274 31.498 21.413 51.675 21.413 20.181 0 37.397-7.139 51.675-21.413 14.277-14.276 21.412-31.504 21.412-51.674.568 0 2.711.048 6.42.144 3.713.089 6.14.089 7.282 0 1.144-.096 3.289-.288 6.427-.575 3.139-.287 5.373-.855 6.708-1.711s2.901-1.95 4.709-3.285c1.81-1.335 3.097-3.094 3.856-5.284.77-2.187 1.143-4.712 1.143-7.562V63.953c.004-4.949-1.803-9.229-5.417-12.853zM153.597 400.28c-7.229 7.23-15.797 10.854-25.694 10.854-9.898 0-18.464-3.62-25.697-10.854-7.233-7.228-10.848-15.797-10.848-25.693 0-9.897 3.619-18.47 10.848-25.701 7.232-7.228 15.798-10.848 25.697-10.848 9.897 0 18.464 3.617 25.694 10.848 7.236 7.231 10.853 15.804 10.853 25.701 0 9.896-3.617 18.465-10.853 25.693zm10.853-171.877H54.814v-8.562c0-2.475.855-4.569 2.568-6.283l55.674-55.672c1.712-1.714 3.809-2.568 6.283-2.568h45.111v73.085zM409.41 400.28c-7.23 7.23-15.797 10.854-25.693 10.854-9.9 0-18.47-3.62-25.7-10.854-7.231-7.228-10.849-15.797-10.849-25.693 0-9.897 3.617-18.47 10.849-25.701 7.23-7.228 15.8-10.848 25.7-10.848 9.896 0 18.463 3.617 25.693 10.848 7.231 7.235 10.852 15.804 10.852 25.701 0 9.896-3.614 18.465-10.852 25.693z"/>
</symbol>
<symbol id="delivery-truck" viewBox="0 0 612 612">
    <path d="M21.474 377.522V117.138c0-14.469 11.729-26.199 26.199-26.199h260.25c14.469 0 26.198 11.73 26.198 26.199v260.385a8.732 8.732 0 0 1-8.733 8.733H30.207a8.733 8.733 0 0 1-8.733-8.734zm210.16 89.202c0 30.01-24.329 54.338-54.338 54.338s-54.338-24.328-54.338-54.338c0-30.011 24.329-54.338 54.338-54.338s54.338 24.327 54.338 54.338zm-27.17 0c0-15.005-12.164-27.169-27.169-27.169s-27.17 12.164-27.17 27.169 12.165 27.17 27.17 27.17 27.169-12.165 27.169-27.17zm-73.969-54.339H8.733A8.733 8.733 0 0 0 0 421.118v26.495a8.733 8.733 0 0 0 8.733 8.733h97.598c2.548-17.484 11.373-32.928 24.164-43.961zm385.443 54.339c0 30.01-24.329 54.338-54.338 54.338-30.01 0-54.338-24.328-54.338-54.338 0-30.011 24.328-54.338 54.338-54.338 30.009-.001 54.338 24.327 54.338 54.338zm-27.168 0c0-15.005-12.165-27.169-27.17-27.169-15.006 0-27.169 12.164-27.169 27.169s12.164 27.17 27.169 27.17 27.17-12.165 27.17-27.17zM612 421.118v26.495a8.733 8.733 0 0 1-8.733 8.733h-70.704c-5.057-34.683-34.906-61.427-70.961-61.427-36.062 0-65.912 26.745-70.969 61.427H248.261c-2.549-17.483-11.373-32.928-24.164-43.961h134.994V162.594c0-9.646 7.82-17.466 17.466-17.466h82.445a69.86 69.86 0 0 1 57.9 30.77l53.15 78.721a69.865 69.865 0 0 1 11.962 39.094v118.672h21.253a8.733 8.733 0 0 1 8.733 8.733zm-88.592-164.483l-42.501-60.393a8.734 8.734 0 0 0-7.142-3.707H407.47a8.734 8.734 0 0 0-8.733 8.733v60.393a8.732 8.732 0 0 0 8.733 8.733h108.798c7.074 0 11.212-7.973 7.14-13.759z"/>
</symbol>
<symbol id="down-arrow" viewBox="0 0 129 129">
    <path d="M121.3 34.6c-1.6-1.6-4.2-1.6-5.8 0l-51 51.1-51.1-51.1c-1.6-1.6-4.2-1.6-5.8 0-1.6 1.6-1.6 4.2 0 5.8l53.9 53.9c.8.8 1.8 1.2 2.9 1.2 1 0 2.1-.4 2.9-1.2l53.9-53.9c1.7-1.6 1.7-4.2.1-5.8z"/>
</symbol>
<symbol id="eye" viewBox="0 0 24 24">
    <path d="M21.821 12.43c-.083-.119-2.062-2.944-4.793-4.875C15.612 6.552 13.826 6 12 6c-1.825 0-3.611.552-5.03 1.555-2.731 1.931-4.708 4.756-4.791 4.875a1 1 0 0 0 0 1.141c.083.119 2.06 2.944 4.791 4.875C8.389 19.448 10.175 20 12 20c1.826 0 3.612-.552 5.028-1.555 2.731-1.931 4.71-4.756 4.793-4.875a.996.996 0 0 0 0-1.14zM12 16.5c-1.934 0-3.5-1.57-3.5-3.5 0-1.934 1.566-3.5 3.5-3.5 1.93 0 3.5 1.566 3.5 3.5 0 1.93-1.57 3.5-3.5 3.5z"/>
    <path d="M14 13c0 1.102-.898 2-2 2a2 2 0 1 1 2-2z"/>
</symbol>
<symbol id="fb" viewBox="0 0 512 512">
    <path d="M191.844 511.5V288.375h-68.313V188h69.875v-83.063S196.594.312 286.219-.501h99.75V98h-61.875s-26.125 0-26.125 29.438v62.313h89.5l-10.75 100.313h-77.188V511.5H191.844z"/>
</symbol>
<symbol id="grid" viewBox="0 0 32 32">
    <path d="M2 2h8v8H2zm10 0h8v8h-8zm10 0h8v8h-8zM2 12h8v8H2zm10 0h8v8h-8zm10 0h8v8h-8zM2 22h8v8H2zm10 0h8v8h-8zm10 0h8v8h-8z"/>
</symbol>
<symbol id="hamburger" viewBox="0 0 64 64">
    <style>
        .st0{fill:#134563}
    </style>
    <g id="Navicon" transform="translate(330 232)">
        <path class="st0" id="Fill-19" d="M-321.8-219h47.5v6.3h-47.5z"/>
        <path class="st0" id="Fill-20" d="M-321.8-203.2h47.5v6.4h-47.5z"/>
        <path class="st0" id="Fill-21" d="M-321.8-187.3h47.5v6.3h-47.5z"/>
    </g>
</symbol>
<symbol id="laptop" viewBox="0 0 48 48">
    <g id="Expanded">
        <path d="M40 26H8V6h32v20zm-30-2h28V8H10v16zM33.281 40H14.719l1.5-6h15.562l1.5 6zm-16-2h13.438l-.5-2H17.781l-.5 2z"/>
        <path d="M44 48H4c-2.206 0-4-1.794-4-4l.038-1.275L4 28.86V6c0-2.206 1.794-4 4-4h32c2.206 0 4 1.794 4 4v21.869L48 43v1c0 2.206-1.794 4-4 4zM2 43.14V44c0 1.103.897 2 2 2h40c1.103 0 2-.897 2-2v-.869L42 28V6c0-1.103-.897-2-2-2H8c-1.103 0-2 .897-2 2l-.038 23.275L2 43.14z"/>
        <path d="M5 28h38v2H5zM1 42h46v2H1z"/>
    </g>
</symbol>
<symbol id="left-arrow (1)" viewBox="0 0 512 512">
    <path d="M491.318 235.318H20.682C9.26 235.318 0 244.578 0 256c0 11.423 9.26 20.682 20.682 20.682h470.636c11.423 0 20.682-9.259 20.682-20.682 0-11.422-9.259-20.682-20.682-20.682z"/>
    <path d="M49.932 256L211.795 94.136c8.077-8.077 8.077-21.172 0-29.249-8.077-8.076-21.172-8.076-29.249 0L6.058 241.375c-8.077 8.077-8.077 21.172 0 29.249l176.488 176.488a20.616 20.616 0 0 0 14.625 6.058 20.616 20.616 0 0 0 14.625-6.058c8.077-8.077 8.077-21.172 0-29.249L49.932 256z"/>
</symbol>
<symbol id="left-arrow" viewBox="0 0 512 512">
    <path d="M491.318 235.318H20.682C9.26 235.318 0 244.578 0 256c0 11.423 9.26 20.682 20.682 20.682h470.636c11.423 0 20.682-9.259 20.682-20.682 0-11.422-9.259-20.682-20.682-20.682z"/>
    <path d="M49.932 256L211.795 94.136c8.077-8.077 8.077-21.172 0-29.249-8.077-8.076-21.172-8.076-29.249 0L6.058 241.375c-8.077 8.077-8.077 21.172 0 29.249l176.488 176.488a20.616 20.616 0 0 0 14.625 6.058 20.616 20.616 0 0 0 14.625-6.058c8.077-8.077 8.077-21.172 0-29.249L49.932 256z"/>
</symbol>
<symbol id="marker" viewBox="0 0 1792 1792">
    <path d="M1152 640q0-106-75-181t-181-75-181 75-75 181 75 181 181 75 181-75 75-181zm256 0q0 109-33 179l-364 774q-16 33-47.5 52t-67.5 19-67.5-19-46.5-52L417 819q-33-70-33-179 0-212 150-362t362-150 362 150 150 362z"/>
</symbol>
<symbol id="photo" viewBox="0 0 24 24">
    <path d="M12 11.308a2.543 2.543 0 0 0-2.539 2.538c0 1.4 1.141 2.54 2.539 2.54s2.541-1.139 2.541-2.54A2.545 2.545 0 0 0 12 11.308"/>
    <path d="M20.861 5.537h-3.15c-.008-.031-.012-.063-.027-.095l-.289-.729c-.43-1.07-1.723-1.943-2.875-1.943H9.48c-1.152 0-2.445.874-2.873 1.943l-.291.729c-.013.033-.017.064-.027.095H3.141A3.153 3.153 0 0 0 0 8.678v9.412a3.15 3.15 0 0 0 3.141 3.14h17.721a3.15 3.15 0 0 0 3.139-3.14V8.678a3.153 3.153 0 0 0-3.14-3.141zM12 18.692c-2.672 0-4.844-2.175-4.844-4.847S9.328 9 12 9s4.846 2.174 4.846 4.846-2.174 4.846-4.846 4.846zm9.855-9.148h-3.094V7.997h3.094v1.547z"/>
</symbol>
<symbol id="phpone (1)" viewBox="0 0 141.732 141.732">
    <path d="M88.637 42.678c.045 0 .086-.003.131-.003V.004c-.045 0-.086-.004-.131-.004-23.654 0-42.829 31.197-42.829 69.68 0 38.479 19.175 69.679 42.829 69.679.041 0 .082-.003.121-.005V96.699c-.039 0-.08-.003-.121-.003-3.361 0-6.541.777-9.371 2.159-4.145-8.11-6.605-18.253-6.605-29.26 0-10.943 2.438-21.031 6.537-29.118a21.224 21.224 0 0 0 9.439 2.201m7.286-2.418c0-.048-.004-.09-.006-.133h.006V2.811h-.006c.002-.044.006-.087.006-.131A2.56 2.56 0 0 0 93.366.118a2.56 2.56 0 0 0-2.557 2.562c0 .044.004.087.006.131h-.006V40.13h.006c-.002.043-.006.085-.006.133a2.554 2.554 0 0 0 2.557 2.545 2.557 2.557 0 0 0 2.557-2.548m-.006 96.405h.006V99.346h-.006c.002-.044.006-.087.006-.135a2.56 2.56 0 0 0-2.557-2.558 2.56 2.56 0 0 0-2.557 2.558c0 .048.004.091.006.135h-.006v37.315h.006c-.002.043-.006.085-.006.129a2.552 2.552 0 0 0 2.557 2.545 2.55 2.55 0 0 0 2.557-2.545c0-.04-.004-.082-.006-.125" id="Livello_9"/>
</symbol>
<symbol id="right-arrow" viewBox="0 0 31.49 31.49">
    <path d="M21.205 5.007a1.112 1.112 0 0 0-1.587 0 1.12 1.12 0 0 0 0 1.571l8.047 8.047H1.111A1.106 1.106 0 0 0 0 15.737c0 .619.492 1.127 1.111 1.127h26.554l-8.047 8.032c-.429.444-.429 1.159 0 1.587a1.112 1.112 0 0 0 1.587 0l9.952-9.952a1.093 1.093 0 0 0 0-1.571l-9.952-9.953z" fill="#1e201d"/>
</symbol>
<symbol id="search" viewBox="0 0 512 512">
    <path d="M497.913 497.913c-18.782 18.782-49.225 18.782-68.008 0l-84.862-84.863c-34.889 22.382-76.13 35.717-120.659 35.717C100.469 448.767 0 348.312 0 224.383S100.469 0 224.384 0c123.931 0 224.384 100.452 224.384 224.383 0 44.514-13.352 85.771-35.718 120.676l84.863 84.863c18.782 18.782 18.782 49.209 0 67.991zM224.384 64.109c-88.511 0-160.274 71.747-160.274 160.273s71.764 160.274 160.274 160.274c88.525 0 160.273-71.748 160.273-160.274S312.909 64.109 224.384 64.109z"/>
</symbol>
<symbol id="shop-basket" viewBox="0 0 32 32">
    <path d="M28 10h-4V8A8 8 0 0 0 8 8v2H4c-1.1 0-2 .9-2 2v12c0 4.4 3.6 8 8 8h12c4.4 0 8-3.6 8-8V12c0-1.1-.9-2-2-2zM12 8a4 4 0 0 1 8 0v2h-8V8zm14 16c0 2.206-1.795 4-4 4H10c-2.206 0-4-1.794-4-4V14h2v2a2 2 0 0 0 4 0v-2h8v2a2 2 0 0 0 4 0v-2h2v10z"/>
</symbol>
<symbol id="smartphone" viewBox="0 0 17.132 28.711">
    <path d="M16.003 0H1.128C.505 0 0 .504 0 1.128v26.458c0 .621.505 1.127 1.128 1.127h14.875c.623 0 1.127-.506 1.127-1.127V1.128h.002C17.132.504 16.626 0 16.003 0zM8.559 27.524a1.328 1.328 0 0 1-1.328-1.327 1.327 1.327 0 0 1 2.655 0c0 .733-.594 1.327-1.327 1.327zm5.835-5.649H2.739V3.701h11.655v18.174z"/>
</symbol>
<symbol id="star" viewBox="0 0 24 24">
    <path d="M12 2l3.09 6.26L22 9.27l-5 4.87 1.18 6.88L12 17.77l-6.18 3.25L7 14.14 2 9.27l6.91-1.01L12 2z"/>
</symbol>
<symbol id="truck-icon" viewBox="0 0 50.691 50.691">
    <path d="M11.503 34.554c-2.756 0-4.988 2.234-4.988 4.99s2.232 4.988 4.988 4.988c2.757 0 4.989-2.232 4.989-4.988s-2.232-4.99-4.989-4.99zm0 6.648a1.658 1.658 0 1 1 .001-3.315 1.658 1.658 0 0 1-.001 3.315zM39.523 34.554c-2.755 0-4.987 2.234-4.987 4.99s2.232 4.988 4.987 4.988c2.758 0 4.989-2.232 4.989-4.988s-2.231-4.99-4.989-4.99zm0 6.648a1.658 1.658 0 1 1 .001-3.315 1.658 1.658 0 0 1-.001 3.315z"/>
    <path d="M49.694 33.944h-.344V21.555c0-.565-.275-1.387-.616-1.836l-5.667-7.451c-.344-.448-1.077-.813-1.645-.813h-9.211V7.182c0-.566-.457-1.023-1.022-1.023H5.626a4.09 4.09 0 0 0-4.092 4.091v23.694H1a1 1 0 0 0-1 1v3.576c0 .563.458 1.022 1.022 1.022h3.492a6.995 6.995 0 0 1 6.988-6.987c3.854 0 6.989 3.135 6.989 6.987h14.044a6.995 6.995 0 0 1 6.988-6.987 6.995 6.995 0 0 1 6.987 6.987h3.157c.566 0 1.023-.459 1.023-1.022v-3.576a.994.994 0 0 0-.996-1zM34.809 21.301v-5.977h4.26c.538 0 1.234.35 1.559.781l3.808 5.195-9.627.001z"/>
</symbol>
<symbol id="truck" viewBox="0 0 488 488">
    <path d="M469.8 298.8v-52.4c0-19.9-16-35.9-35.9-35.9l-24.8-3.9-42.5-64c-.6-.5-1.1-1.7-1.7-2.2-6.6-8.8-17.1-14.9-29.3-14.9H255v-22.3c0-11.3-8.4-20.5-18.8-20.5H18.8C8.4 82.7 0 91.9 0 103.2v242c0 11.6 9.4 20.4 20.4 20.4h29.3c6.6 23.2 27.6 39.7 53 39.7s46.4-17.1 53-39.7h180.5c6.6 23.2 27.6 39.7 53 39.7s46.4-17.1 53-39.7h25.4c11.6 0 20.4-9.4 20.4-20.4v-25.9c0-10.6-8.3-19.4-18.2-20.5zm-367.1 78.9c-15.5 0-27.6-12.7-27.6-27.6 0-14.9 12.7-27.6 27.6-27.6 15.5 0 27.6 12.7 27.6 27.6 0 14.9-12.1 27.6-27.6 27.6zm190.1-169c-1.4 0-2.6-1.1-2.6-2.6v-50.7c0-1.4 1.1-2.6 2.6-2.6h43.8c.9 0 1.7.4 2.1 1.1l34.1 50.7c1.1 1.7-.1 4-2.1 4h-77.9v.1zm96.4 169c-15.5 0-27.6-12.7-27.6-27.6 0-14.9 12.7-27.6 27.6-27.6 15.5 0 27.6 12.7 27.6 27.6 0 14.9-12.7 27.6-27.6 27.6z"/>
</symbol>
<symbol id="twitter" viewBox="-0.001 -3.266 32 32">
    <path d="M32 3.078a13.15 13.15 0 0 1-3.771 1.035A6.598 6.598 0 0 0 31.116.48a13.22 13.22 0 0 1-4.168 1.594A6.558 6.558 0 0 0 22.155 0a6.565 6.565 0 0 0-6.565 6.566c0 .512.058 1.016.17 1.496A18.647 18.647 0 0 1 2.228 1.203a6.529 6.529 0 0 0-.889 3.299A6.562 6.562 0 0 0 4.26 9.967a6.524 6.524 0 0 1-2.974-.822l-.001.084a6.57 6.57 0 0 0 5.267 6.438 6.575 6.575 0 0 1-2.964.112 6.568 6.568 0 0 0 6.133 4.559 13.167 13.167 0 0 1-9.719 2.718 18.579 18.579 0 0 0 10.063 2.951c12.076 0 18.679-10.004 18.679-18.68 0-.283-.006-.568-.018-.85A13.36 13.36 0 0 0 32 3.078z" id="twitter_1_"/>
</symbol>
<symbol id="vac-cleaner" viewBox="0 0 32 32">
    <title/>
    <path d="M29 17.81V14a2 2 0 0 0-2-2 68 68 0 0 0-9.38.61 17.7 17.7 0 0 1-2-3.64C14.15 5.58 11.89 4 8.5 4a6.5 6.5 0 0 0-5.67 9.68l-1 .68 2 3.17a8.77 8.77 0 0 0-3.8 7V26a2 2 0 0 0 2 2h2.06a1.49 1.49 0 0 0 2.82 0h15.78A6 6 0 1 0 29 17.81zM3 10.5A5.51 5.51 0 0 1 8.5 5c3 0 4.89 1.35 6.19 4.36a20.1 20.1 0 0 0 1.82 3.42l-1.09.22a20.38 20.38 0 0 1-1.6-3.09l-.05-.12C12.64 7.12 11.08 6 8.55 6a4.49 4.49 0 0 0-4 6.55l-.86.57A5.48 5.48 0 0 1 3 10.5zm5.68 4.34l-2.23-3.57-1.09.73a3.51 3.51 0 0 1 3.2-5c2.14 0 3.31.85 4.3 3.15v.12a22.15 22.15 0 0 0 1.47 2.91 35.19 35.19 0 0 0-5.65 1.66zm-5.5-.19l3-2 1.6 2.56a19.92 19.92 0 0 0-3.13 1.71zM27 13a1 1 0 0 1 1 1c-8.69.14-14.78 3.74-19.69 6.66C5.43 22.39 3.1 23.76 1 24c.55-6.61 10.85-11 26-11zM1 26v-1c2.33-.19 4.78-1.64 7.82-3.45 4.8-2.87 10.76-6.4 19.18-6.55v2.34A6 6 0 0 0 21.54 27H2a1 1 0 0 1-1-1zm25 2a5 5 0 1 1 5-5 5 5 0 0 1-5 5z"/>
</symbol>
<symbol id="video" viewBox="0 0 32 32">
    <path fill="none" d="M0 0h32v32H0z" id="background"/>
    <g id="video_x5F_edit">
        <path d="M8 6v6L0 6v20l8-6v6h6.523c1.236 3.493 4.558 5.998 8.477 6 3.917-.002 7.239-2.507 8.477-6H32V6H8zm15 23.883A6.898 6.898 0 0 1 16.115 23 6.898 6.898 0 0 1 23 16.115 6.898 6.898 0 0 1 29.883 23 6.898 6.898 0 0 1 23 29.883z"/>
        <path d="M22 27h-3v-3z"/>
        <path transform="rotate(134.999 24 22)" d="M20.464 19.879h7.071v4.243h-7.071z"/>
    </g>
</symbol>
<symbol id="vk" viewBox="0 0 1792 1792">
    <path d="M1853 520q23 64-150 294-24 32-65 85-78 100-90 131-17 41 14 81 17 21 81 82h1l1 1 1 1 2 2q141 131 191 221 3 5 6.5 12.5t7 26.5-.5 34-25 27.5-59 12.5l-256 4q-24 5-56-5t-52-22l-20-12q-30-21-70-64t-68.5-77.5-61-58-56.5-15.5q-3 1-8 3.5t-17 14.5-21.5 29.5-17 52-6.5 77.5q0 15-3.5 27.5t-7.5 18.5l-4 5q-18 19-53 22H875q-71 4-146-16.5t-131.5-53-103-66T424 1338l-25-24q-10-10-27.5-30t-71.5-91-106-151T71.5 831-59 559q-6-16-6-27t3-16l4-6q15-19 57-19l274-2q12 2 23 6.5t16 8.5l5 3q16 11 24 32 20 50 46 103.5t41 81.5l16 29q29 60 56 104t48.5 68.5T590 964t34 14 27-5q2-1 5-5t12-22 13.5-47 9.5-81 0-125q-2-40-9-73t-14-46l-6-12q-25-34-85-43-13-2 5-24 17-19 38-30 53-26 239-24 82 1 135 13 20 5 33.5 13.5t20.5 24 10.5 32 3.5 45.5-1 55-2.5 70.5-1.5 82.5q0 11-1 42t-.5 48 3.5 40.5 11.5 39T1093 971q8 2 17 4t26-11 38-34.5 52-67 68-107.5q60-104 107-225 4-10 10-17.5t11-10.5l4-3 5-2.5 13-3 20-.5 288-2q39-5 64 2.5t31 16.5z"/>
</symbol>
</svg>