<svg height="96" viewBox="0 0 96 96" width="96" xmlns="http://www.w3.org/2000/svg"><path d="M72 21.174V12c0-6.63-5.37-12-12-12H36c-6.63 0-12 5.37-12 12v9.174C16.637 27.766 12 37.34 12 48s4.637 20.234 12 26.826V84c0 6.63 5.37 12 12 12h24c6.63 0 12-5.37 12-12v-9.174C79.363 68.234 84 58.66 84 48s-4.637-20.234-12-26.826zM32 12c0-2.21 1.79-4 4-4h24c2.21 0 4 1.79 4 4v3.751C59.18 13.354 53.749 12 48 12s-11.179 1.354-16 3.751V12zm32 72c0 2.21-1.79 4-4 4H36c-2.21 0-4-1.79-4-4v-3.751C36.821 82.646 42.251 84 48 84s11.18-1.354 16-3.751V84zm-16-8c-15.464 0-28-12.536-28-28s12.536-28 28-28 28 12.536 28 28-12.536 28-28 28z"/><path d="M59.314 53.657L52 46.343V32a4 4 0 0 0-8 0v16l.003.027c.001.253.026.506.076.755.024.122.069.235.104.354.039.132.069.265.122.394.058.138.136.264.208.394.054.099.097.2.16.295.147.22.314.427.501.613l8.483 8.481a4 4 0 1 0 5.657-5.656z"/></svg>