<svg height="24" viewBox="0 0 24 24" width="24" xmlns="http://www.w3.org/2000/svg"><path d="M12 11.308a2.543 2.543 0 0 0-2.539 2.538c0 1.4 1.141 2.54 2.539 2.54s2.541-1.139 2.541-2.54A2.545 2.545 0 0 0 12 11.308"/><path d="M20.861 5.537h-3.15c-.008-.031-.012-.063-.027-.095l-.289-.729c-.43-1.07-1.723-1.943-2.875-1.943H9.48c-1.152 0-2.445.874-2.873 1.943l-.291.729c-.013.033-.017.064-.027.095H3.141A3.153 3.153 0 0 0 0 8.678v9.412a3.15 3.15 0 0 0 3.141 3.14h17.721a3.15 3.15 0 0 0 3.139-3.14V8.678a3.153 3.153 0 0 0-3.14-3.141zM12 18.692c-2.672 0-4.844-2.175-4.844-4.847S9.328 9 12 9s4.846 2.174 4.846 4.846-2.174 4.846-4.846 4.846zm9.855-9.148h-3.094V7.997h3.094v1.547z"/></svg>