<svg xmlns="http://www.w3.org/2000/svg" viewBox="0 0 488 488"><path d="M469.8 298.8v-52.4c0-19.9-16-35.9-35.9-35.9l-24.8-3.9-42.5-64c-.6-.5-1.1-1.7-1.7-2.2-6.6-8.8-17.1-14.9-29.3-14.9H255v-22.3c0-11.3-8.4-20.5-18.8-20.5H18.8C8.4 82.7 0 91.9 0 103.2v242c0 11.6 9.4 20.4 20.4 20.4h29.3c6.6 23.2 27.6 39.7 53 39.7s46.4-17.1 53-39.7h180.5c6.6 23.2 27.6 39.7 53 39.7s46.4-17.1 53-39.7h25.4c11.6 0 20.4-9.4 20.4-20.4v-25.9c0-10.6-8.3-19.4-18.2-20.5zm-367.1 78.9c-15.5 0-27.6-12.7-27.6-27.6 0-14.9 12.7-27.6 27.6-27.6 15.5 0 27.6 12.7 27.6 27.6 0 14.9-12.1 27.6-27.6 27.6zm190.1-169c-1.4 0-2.6-1.1-2.6-2.6v-50.7c0-1.4 1.1-2.6 2.6-2.6h43.8c.9 0 1.7.4 2.1 1.1l34.1 50.7c1.1 1.7-.1 4-2.1 4h-77.9v.1zm96.4 169c-15.5 0-27.6-12.7-27.6-27.6 0-14.9 12.7-27.6 27.6-27.6 15.5 0 27.6 12.7 27.6 27.6 0 14.9-12.7 27.6-27.6 27.6z"/></svg>