<svg height="500" viewBox="0 0 500 500" width="500" xmlns="http://www.w3.org/2000/svg"><path clip-rule="evenodd" d="M195.448 250.001c0 30.078 24.434 54.513 54.513 54.513 30.078 0 54.513-24.435 54.513-54.513v-.453c-5.819 5.905-13.805 9.539-22.715 9.539-17.539 0-31.798-14.264-31.798-31.799 0-12.626 7.443-23.623 18.08-28.712a53.994 53.994 0 0 0-18.08-3.087c-30.079-.001-54.513 24.437-54.513 54.512zm260.391-30.984c-33.804-42.97-116.113-114.384-205.79-114.384-89.762 0-172.162 71.415-205.967 114.384-7.63 9.814-11.809 20.444-12.083 30.984.275 10.541 4.453 21.171 12.083 30.983 33.806 42.979 116.115 114.383 205.879 114.383s172.074-71.404 205.878-114.383c7.718-9.813 11.898-20.442 12.173-30.983-.275-10.54-4.455-21.17-12.173-30.984zM249.961 340.854c-50.147 0-90.855-40.703-90.855-90.853 0-50.151 40.708-90.855 90.855-90.855 50.146 0 90.854 40.704 90.854 90.855-.001 50.149-40.709 90.853-90.854 90.853z" fill="#010101" fill-rule="evenodd"/></svg>