<svg viewBox="0 0 512 512" xmlns="http://www.w3.org/2000/svg"><style>.st0{fill:#1d2628}.st1{fill:#0e0e0e}.st2{fill:#fff}</style><path d="M492.3 443.1c0 34.2-27.7 61.9-61.9 61.9H80.7c-34.2 0-61.9-27.7-61.9-61.9V93.4c0-34.2 27.7-61.9 61.9-61.9h349.7c34.2 0 61.9 27.7 61.9 61.9v349.7z" id="Background_Bottom"/><path class="st0" d="M492.3 418.4c0 34.2-27.7 61.9-61.9 61.9H80.7c-34.2 0-61.9-27.7-61.9-61.9V68.6c0-34.2 27.7-61.9 61.9-61.9h349.7c34.2 0 61.9 27.7 61.9 61.9v349.8z" id="Background"/><path class="st1" d="M492.6 333.4L337.5 178.3c-22.1-26.1-50.1-46.4-81.4-57.9-84.9 31-145.7 127.8-130.1 225.6h-.2l133.9 133.9h171c34.2 0 61.9-27.7 61.9-61.9v-84.6z" id="Shadow"/><g id="Symbol"><path class="st2" d="M255.6 120.4c-84.9 31-145.7 127.9-130.1 225.7 0 0 50.8 45.7 130.1 45.7s130-45.7 130-45.7c15.7-97.8-45.1-194.7-130-225.7zm112 214.8S349 351 320.9 359.8c-1.1.3-2.3.4-3.4-.3-1.6-1-2.1-2.9-1.1-4.6.2-.3.6-.8 1-1.2 6.7-5.5 12.4-12.4 17-20.4 8.3-14.3 11.3-30.2 9.7-45.5-4.8 24.7-19.9 47.3-43.4 60.9-50 28.9-113 21.3-157.1-13.4 0 0-4.4-24 2.1-52.7.2-1.1.8-2.2 2-2.8 1.6-1 3.5-.4 4.5 1.3.2.3.4.9.5 1.5 1.4 8.6 4.6 16.9 9.2 25 8.3 14.3 20.5 24.9 34.6 31.2-7.3-6.4-13.8-14.1-18.9-23-8.7-15-12.5-31.4-12-47.6 1.1-56.7 38.8-106.3 90.1-126.8 0 0 23 8.2 44.6 28.2.8.8 1.5 1.8 1.5 3.1 0 1.9-1.5 3.2-3.4 3.2-.3 0-1-.1-1.5-.3-8.2-3.1-17-4.5-26.2-4.5-16.5 0-31.8 5.3-44.3 14.4 26-9 54.3-5.4 77 8.7 48.1 29.2 72 86.5 64.2 141z"/><path class="st2" d="M182.2 253.8c-.7 3.6-1.1 7.3-1.1 11.1 0 35.6 33.3 64.4 74.5 64.4 41.1 0 74.5-28.8 74.5-64.4 0-3.8-.4-7.5-1.1-11.1-15.5-15.8-42.5-26.4-73.3-26.4-31 .1-58 10.6-73.5 26.4zm108.6 16.8c0 19.5-15.8 35.3-35.3 35.3-19.5 0-35.3-15.8-35.3-35.3 0-4.9 1-9.5 2.8-13.8 2 5.7 7.5 9.8 13.9 9.8 8.1 0 14.7-6.6 14.7-14.7 0-6.4-4.1-11.9-9.8-13.9 4.2-1.8 8.9-2.8 13.7-2.8 19.5.1 35.3 15.9 35.3 35.4z"/></g></svg>