<svg height="48" viewBox="0 0 48 48" width="48" xmlns="http://www.w3.org/2000/svg"><path d="M40 26H8V6h32v20zm-30-2h28V8H10v16zm23.281 16H14.719l1.5-6h15.562l1.5 6zm-16-2h13.438l-.5-2H17.781l-.5 2z"/><path d="M44 48H4c-2.206 0-4-1.794-4-4l.038-1.275L4 28.86V6c0-2.206 1.794-4 4-4h32c2.206 0 4 1.794 4 4v21.869L48 43v1c0 2.206-1.794 4-4 4zM2 43.14V44c0 1.103.897 2 2 2h40c1.103 0 2-.897 2-2v-.869L42 28V6c0-1.103-.897-2-2-2H8c-1.103 0-2 .897-2 2l-.038 23.275L2 43.14z"/><path d="M5 28h38v2H5zM1 42h46v2H1z"/></svg>