<svg height="141.732" viewBox="0 0 141.732 141.732" width="141.732" xmlns="http://www.w3.org/2000/svg"><path d="M88.637 42.678c.045 0 .086-.003.131-.003V.004c-.045 0-.086-.004-.131-.004-23.654 0-42.829 31.197-42.829 69.68 0 38.479 19.175 69.679 42.829 69.679.041 0 .082-.003.121-.005V96.699c-.039 0-.08-.003-.121-.003-3.361 0-6.541.777-9.371 2.159-4.145-8.11-6.605-18.253-6.605-29.26 0-10.943 2.438-21.031 6.537-29.118a21.224 21.224 0 0 0 9.439 2.201m7.286-2.418c0-.048-.004-.09-.006-.133h.006V2.811h-.006c.002-.044.006-.087.006-.131A2.56 2.56 0 0 0 93.366.118a2.56 2.56 0 0 0-2.557 2.562c0 .044.004.087.006.131h-.006V40.13h.006c-.002.043-.006.085-.006.133a2.554 2.554 0 0 0 2.557 2.545 2.557 2.557 0 0 0 2.557-2.548m-.006 96.405h.006V99.346h-.006c.002-.044.006-.087.006-.135a2.56 2.56 0 0 0-2.557-2.558 2.56 2.56 0 0 0-2.557 2.558c0 .048.004.091.006.135h-.006v37.315h.006c-.002.043-.006.085-.006.129a2.552 2.552 0 0 0 2.557 2.545 2.55 2.55 0 0 0 2.557-2.545c0-.04-.004-.082-.006-.125"/></svg>