<svg data-name="Layer 1" viewBox="0 0 32 32" xmlns="http://www.w3.org/2000/svg"><title/><path d="M29 17.81V14a2 2 0 0 0-2-2 68 68 0 0 0-9.38.61 17.7 17.7 0 0 1-2-3.64C14.15 5.58 11.89 4 8.5 4a6.5 6.5 0 0 0-5.67 9.68l-1 .68 2 3.17a8.77 8.77 0 0 0-3.8 7V26a2 2 0 0 0 2 2h2.06a1.49 1.49 0 0 0 2.82 0h15.78A6 6 0 1 0 29 17.81zM3 10.5A5.51 5.51 0 0 1 8.5 5c3 0 4.89 1.35 6.19 4.36a20.1 20.1 0 0 0 1.82 3.42l-1.09.22a20.38 20.38 0 0 1-1.6-3.09l-.05-.12C12.64 7.12 11.08 6 8.55 6a4.49 4.49 0 0 0-4 6.55l-.86.57A5.48 5.48 0 0 1 3 10.5zm5.68 4.34l-2.23-3.57-1.09.73a3.51 3.51 0 0 1 3.2-5c2.14 0 3.31.85 4.3 3.15v.12a22.15 22.15 0 0 0 1.47 2.91 35.19 35.19 0 0 0-5.65 1.66zm-5.5-.19l3-2 1.6 2.56a19.92 19.92 0 0 0-3.13 1.71zM27 13a1 1 0 0 1 1 1c-8.69.14-14.78 3.74-19.69 6.66C5.43 22.39 3.1 23.76 1 24c.55-6.61 10.85-11 26-11zM1 26v-1c2.33-.19 4.78-1.64 7.82-3.45 4.8-2.87 10.76-6.4 19.18-6.55v2.34A6 6 0 0 0 21.54 27H2a1 1 0 0 1-1-1zm25 2a5 5 0 1 1 5-5 5 5 0 0 1-5 5z"/></svg>