<?xml version="1.0" ?><svg enable-background="new 0 0 32 32" height="32px" id="svg2" version="1.1" viewBox="0 0 32 32" width="32px" xml:space="preserve" xmlns="http://www.w3.org/2000/svg" xmlns:cc="http://creativecommons.org/ns#" xmlns:dc="http://purl.org/dc/elements/1.1/" xmlns:inkscape="http://www.inkscape.org/namespaces/inkscape" xmlns:rdf="http://www.w3.org/1999/02/22-rdf-syntax-ns#" xmlns:sodipodi="http://sodipodi.sourceforge.net/DTD/sodipodi-0.dtd" xmlns:svg="http://www.w3.org/2000/svg"><g id="background"><rect fill="none" height="32" width="32"/></g><g id="video_x5F_edit"><path d="M8,6v6L0,6v20l8-6v6h6.523c1.236,3.493,4.558,5.998,8.477,6c3.917-0.002,7.239-2.507,8.477-6H32V6H8z M23,29.883   c-3.801-0.009-6.876-3.084-6.885-6.883c0.009-3.801,3.084-6.876,6.885-6.885c3.799,0.009,6.874,3.084,6.883,6.885   C29.874,26.799,26.799,29.874,23,29.883z"/><polygon points="22,27 19,27 19,24  "/><rect height="4.243" transform="matrix(-0.7071 0.7071 -0.7071 -0.7071 56.5269 20.5858)" width="7.071" x="20.464" y="19.879"/></g></svg>